<?xml version="1.0"?>

<svg id="svg2" xmlns:rdf="http://www.w3.org/1999/02/22-rdf-syntax-ns#" xmlns="http://www.w3.org/2000/svg" height="147.7" width="159.41" version="1.1" xmlns:cc="http://creativecommons.org/ns#" xmlns:dc="http://purl.org/dc/elements/1.1/" viewBox="0 0 159.40972 147.70027">
 <metadata id="metadata22">
  <rdf:rdf>
   <cc:work rdf:about="">
    <dc:format>image/svg+xml</dc:format>
    <dc:type rdf:resource="http://purl.org/dc/dcmitype/StillImage"></dc:type>
    <dc:title></dc:title>
   </cc:work>
  </rdf:rdf>
 </metadata>
 <path id="path6" fill="#c00" d="m81.904 8.0059c-24.506 0.3242-47.892 14.358-58.921 38.01a65.394 65.394 0 0 0 -5.9454 32.914l9.5892-3.4907 13.435-4.8907c0.383-4.987 1.6019-9.9869 3.8329-14.78 9.969-21.38 35.473-30.659 56.855-20.691h0.009c4.79 2.234 8.9377 5.2845 12.438 8.8595l9.5798-3.4875c0.12642 0.12925 0.24737 0.26297 0.37188 0.39376 0.35113 0.37131 0.70051 0.74328 1.0344 1.1281 0.0366 0.04151 0.0729 0.08336 0.10938 0.125 0.45533 0.52908 0.89758 1.0679 1.3313 1.6125l0.0141-0.0047c1.4618 1.8494 2.7619 3.8115 3.9016 5.8548l-20.439 7.4438c4.062 7.277 5.9798 15.659 5.3548 24.089l10.847-3.9469a42.007 42.007 0 0 1 -1.6313 8.8517 42.215 42.215 0 0 1 -2.2219 5.9313c-9.972 21.382-35.48 30.661-56.859 20.692a42.387 42.387 0 0 1 -5.6438 -3.2407 42.248 42.248 0 0 1 -2.0516 -1.425 42.387 42.387 0 0 1 -1.5235 -1.2485 42.248 42.248 0 0 1 -1.7672 -1.511 42.387 42.387 0 0 1 -1.4735 -1.4203l-0.0016 0.002a42.248 42.248 0 0 1 -0.0016 -0.002l-8.361 3.0438-14.61 5.3172a65.285 65.285 0 0 0 0.0016 0.002l-0.0047 0.002a65.336 65.336 0 0 0 2.4125 3.0547 65.285 65.285 0 0 0 1.6922 2.1313 65.336 65.336 0 0 0 1.7516 1.9235l0.075-0.0281a65.285 65.285 0 0 0 19.755 14.313c32.914 15.344 72.172 1.0549 87.52-31.855a65.234 65.234 0 0 0 5.9673 -23.755l0.0375-0.01406c0.0152-0.25859 0.0206-0.51651 0.0328-0.77501a65.234 65.234 0 0 0 0.05 -1.1969c0.0545-1.8437 0.0293-3.6836-0.0703-5.5141a65.234 65.234 0 0 0 -0.0906 -1.6391l-0.0125 0.0047c-0.00013-0.0016 0.00012-0.0031 0-0.0047l-10.847 3.9485a66.407 66.407 0 0 0 -6.4563 -23.692l20.441-7.4392c-1.005-2.0732-2.1209-4.096-3.3329-6.0641l0.0109-0.0031a63.036 63.036 0 0 0 -0.19375 -0.29375c-0.5721-0.9177-1.1644-1.8227-1.786-2.711a63.036 63.036 0 0 0 -0.30314 -0.45938l-0.008 0.0031c-0.00068-0.000941-0.00089-0.0022-0.002-0.0031l-9.5798 3.4875a65.432 65.432 0 0 0 -25.71 -21.373c-9.26-4.3168-19.017-6.288-28.606-6.1611zm-55.277 67.434c0.29291 3.6909 0.9289 7.3334 1.8235 10.906l-20.452 7.447a66.626 66.626 0 0 0 10.286 22.297l22.972-8.361c-5.893-6.06-9.813-13.717-11.381-21.9l20.447-7.445a42.853 42.853 0 0 1 -0.742 -7.48 41.507 41.507 0 0 1 0.046 -3.216 42.853 42.853 0 0 1 0.01 -0.298 41.507 41.507 0 0 1 0.024 -0.328l-0.0094 0.0031a42.853 42.853 0 0 1 0 -0.0063l-0.0016 0.0031-23.022 8.3767z"></path>
</svg>
